<svg xmlns="http://www.w3.org/2000/svg" xmlns:xlink="http://www.w3.org/1999/xlink" viewBox="0 0 536.39 552.77"><defs><style>.cls-1{font-size:89.88px;fill:#c94d3f;font-family:Langdon, Langdon;}.cls-2{letter-spacing:-0.02em;}.cls-3{letter-spacing:0.01em;}.cls-4{letter-spacing:0em;}.cls-5{letter-spacing:-0.01em;}.cls-6{fill:#57493d;}.cls-7{fill:url(#linear-gradient);}.cls-8{fill:url(#linear-gradient-2);}.cls-9{fill:url(#linear-gradient-3);}</style><linearGradient id="linear-gradient" x1="484.71" y1="273.03" x2="528.42" y2="273.03" gradientUnits="userSpaceOnUse"><stop offset="0.64" stop-color="#fff"/><stop offset="1" stop-color="#ccc"/></linearGradient><linearGradient id="linear-gradient-2" x1="308.76" y1="274.09" x2="352.47" y2="274.09" xlink:href="#linear-gradient"/><linearGradient id="linear-gradient-3" x1="378.04" y1="430.75" x2="394.88" y2="430.75" xlink:href="#linear-gradient"/></defs><title>logo</title><g id="_2" data-name="2"><text class="cls-1" transform="translate(90.46 530.3)"><tspan class="cls-2">P</tspan><tspan x="45.57" y="0">et</tspan><tspan class="cls-3" x="120.35" y="0">M</tspan><tspan class="cls-4" x="193.15" y="0">a</tspan><tspan class="cls-5" x="236.11" y="0">t</tspan><tspan x="265.32" y="0">ch</tspan></text><path class="cls-6" d="M450.17,411.81c-10-4.28-22.7-3.67-32.5-3.56-9.8-.1-22.48-.72-32.5,3.56-13.65,5.83-22.28,18.54-10.94,29.87,24.26,28.25,42.18,32.82,43.41,33.11v0h.07v0c1.23-.29,19.15-4.86,43.41-33.11C472.45,430.35,463.82,417.64,450.17,411.81Z" transform="translate(-149.47 -74.8)"/><path class="cls-6" d="M490.37,250.51c-12.14,7.4-18.09,40.19-18.09,40.19s31.87,9.74,44,2.35,20.36-41.57,20.36-41.57S502.5,243.11,490.37,250.51Z" transform="translate(-149.47 -74.8)"/><path class="cls-6" d="M477.34,291.89l-.58.36c.08,0,.19-.24.09-.19a2.79,2.79,0,0,0-.37.58,23.31,23.31,0,0,0-1.37,5.26,47.15,47.15,0,0,1-1.29,5.84,8.7,8.7,0,0,1-.84,1.81l-.49.57.28-.67a8.57,8.57,0,0,0,.23-1.86,47.4,47.4,0,0,0-.55-5.77,26.51,26.51,0,0,1-.32-6.31,8.15,8.15,0,0,1,.32-1.47,6.5,6.5,0,0,1,.94-1.63l.51-.6Z" transform="translate(-149.47 -74.8)"/><path class="cls-7" d="M484.71,285.59s1,.16,2.64.28c.83.11,1.85.11,3,.21s2.44.07,3.82,0a42.79,42.79,0,0,0,4.43-.34,13.11,13.11,0,0,0,2.35-.38c.79-.2,1.61-.28,2.41-.5a29.71,29.71,0,0,0,4.75-1.75,25.25,25.25,0,0,0,4.48-2.54,12.44,12.44,0,0,0,2-1.63c.63-.6,1.34-1.09,1.94-1.71,1.05-1.37,2.34-2.53,3.28-3.93s1.81-2.79,2.69-4.1c.66-1.43,1.36-2.77,2-4l.92-1.8.68-1.7c.41-1.08.83-2,1.16-2.79.68-1.55,1.12-2.44,1.12-2.44s0,1-.14,2.67c-.06.85-.14,1.89-.27,3.08-.07.6-.14,1.23-.21,1.9s-.34,1.33-.53,2.05c-.38,1.43-.8,3-1.32,4.64-.72,1.56-1.49,3.23-2.37,4.92a49,49,0,0,1-3.42,4.85c-.67.76-1.47,1.44-2.23,2.14a15.84,15.84,0,0,1-2.41,2,25.14,25.14,0,0,1-5.5,2.93,27.52,27.52,0,0,1-5.76,1.59,28.85,28.85,0,0,1-5.5.28c-.87-.05-1.71-.06-2.52-.15l-2.31-.39a30.43,30.43,0,0,1-3.93-1,28.26,28.26,0,0,1-2.9-1.13A17.15,17.15,0,0,1,484.71,285.59Z" transform="translate(-149.47 -74.8)"/><path class="cls-6" d="M346.81,251.57C359,259,364.9,291.76,364.9,291.76s-31.87,9.74-44,2.35-20.36-41.57-20.36-41.57S334.67,244.17,346.81,251.57Z" transform="translate(-149.47 -74.8)"/><path class="cls-6" d="M359.84,293l.58.36c-.08,0-.19-.24-.09-.19a3,3,0,0,1,.37.58,23.26,23.26,0,0,1,1.37,5.26,46.65,46.65,0,0,0,1.29,5.84,8.56,8.56,0,0,0,.84,1.81l.49.57-.28-.67a8.35,8.35,0,0,1-.23-1.86,47.07,47.07,0,0,1,.55-5.77,26.5,26.5,0,0,0,.32-6.31,8.23,8.23,0,0,0-.32-1.47,6.45,6.45,0,0,0-.94-1.62l-.51-.6Z" transform="translate(-149.47 -74.8)"/><path class="cls-8" d="M352.47,286.65s-1,.16-2.64.28c-.83.11-1.85.11-3,.21s-2.44.07-3.83,0a42.66,42.66,0,0,1-4.43-.34,13.13,13.13,0,0,1-2.35-.38c-.79-.2-1.61-.28-2.41-.5a29.65,29.65,0,0,1-4.75-1.75,25.21,25.21,0,0,1-4.48-2.54,12.37,12.37,0,0,1-2-1.63c-.63-.59-1.34-1.09-1.94-1.71-1.05-1.37-2.34-2.53-3.28-3.93s-1.81-2.79-2.69-4.1c-.66-1.43-1.35-2.77-2-4l-.92-1.8-.68-1.7c-.42-1.08-.83-2-1.17-2.79-.68-1.55-1.12-2.44-1.12-2.44s0,1,.14,2.67c.07.85.14,1.89.28,3.08.07.6.14,1.23.21,1.9s.34,1.33.53,2.05c.37,1.43.8,3,1.32,4.64.72,1.56,1.49,3.23,2.37,4.92a49.09,49.09,0,0,0,3.42,4.85c.67.76,1.47,1.44,2.23,2.14a15.81,15.81,0,0,0,2.41,2,25.14,25.14,0,0,0,5.5,2.93,27.58,27.58,0,0,0,5.76,1.59,28.85,28.85,0,0,0,5.5.28c.87-.05,1.71-.06,2.52-.15l2.31-.39a30.41,30.41,0,0,0,3.93-1,28.4,28.4,0,0,0,2.9-1.13A17.1,17.1,0,0,0,352.47,286.65Z" transform="translate(-149.47 -74.8)"/><path class="cls-6" d="M417.67,489s.83.46,2.38,1.23,3.86,1.85,6.84,3a112.58,112.58,0,0,0,10.81,3.63,98.46,98.46,0,0,0,14.23,2.71c1.31.12,2.63.33,4,.43l4.14.15,2.11.09c.71,0,1.43,0,2.15-.07l4.37-.17c1.47-.06,3-.35,4.45-.49s3-.28,4.52-.61,3-.67,4.56-1l2.31-.47c.76-.21,1.52-.47,2.29-.7a82.89,82.89,0,0,0,9.2-3.14l4.6-1.87.58-.23-.42.2.07,0,.15-.08.3-.16,1.19-.64,2.4-1.28a1.52,1.52,0,0,0,.46-.31l.34-.29.69-.56c.46-.4.94-.64,1.43-1.11l1.47-1.48.76-.72c.24-.25.44-.56.66-.83a22.47,22.47,0,0,0,2.49-3.51c.37-.63.77-1.24,1.13-1.88l.92-2.07c2.53-5.52,3.83-12,4.51-18.63.27-3.32.45-6.67.5-10s-.08-6.69-.24-10a321.72,321.72,0,0,0-4.44-36.57c-.9-5.4-1.85-10.34-2.69-14.75l-2.26-11.42-2.05-10s.52.79,1.4,2.3,2.18,3.74,3.67,6.65a208.77,208.77,0,0,1,10.88,24.86,185.36,185.36,0,0,1,9.59,37.59c.54,3.57.85,7.25,1.07,11,.06,1.89.18,3.78.19,5.71s-.06,3.87-.17,5.83a68.14,68.14,0,0,1-5.39,24l-1.39,3c-.54,1-1.14,1.9-1.72,2.85a38.17,38.17,0,0,1-4,5.41c-.36.43-.7.88-1.09,1.29L520.39,497l-2.51,2.29a61.53,61.53,0,0,1-6,4l-2.44,1.18-1.22.59-.3.15-.8.37-.69.23L501,507.69a74.94,74.94,0,0,1-11,2.84c-.91.19-1.81.4-2.72.56l-2.75.32c-1.82.22-3.62.4-5.4.57s-3.57.07-5.31.12-3.47.09-5.17-.09l-5-.5c-.82-.09-1.63-.15-2.43-.26l-2.36-.47-4.58-.93c-1.48-.37-2.91-.81-4.31-1.23a81.3,81.3,0,0,1-14.61-6A78.71,78.71,0,0,1,425.3,496l-1.85-1.44-1.56-1.37c-1-.83-1.74-1.61-2.38-2.22C418.25,489.74,417.67,489,417.67,489Z" transform="translate(-149.47 -74.8)"/><path class="cls-6" d="M513.47,108a34.34,34.34,0,0,1,3.43,1.79A88.22,88.22,0,0,1,526,116,153.84,153.84,0,0,1,539,127a209,209,0,0,1,15.37,16,222,222,0,0,1,16,21,203.91,203.91,0,0,1,14.77,25.72c2.26,4.66,4.35,9.5,6.21,14.52a159.31,159.31,0,0,1,5,15.5,154,154,0,0,1,3.44,16.3,143.46,143.46,0,0,1,1.48,16.83,126.19,126.19,0,0,1-.7,17c-.13,1.41-.35,2.81-.53,4.21l-.54,3.9q-.6,3.94-1.19,7.86c-1.58,10.41-3.32,20.56-4.91,30.38s-3.14,19.28-4.42,28.25-2.38,17.46-3.11,25.3-1.15,15-1.1,21.38a84.65,84.65,0,0,0,1.54,16.29,33.05,33.05,0,0,0,3.61,9.87,22.71,22.71,0,0,0,1.59,2.34l.62.76-.79-.59a17.89,17.89,0,0,1-2.16-2,31.11,31.11,0,0,1-5.93-9.45,72.07,72.07,0,0,1-4.64-16.71c-.56-3.29-1-6.81-1.39-10.53s-.56-7.62-.71-11.69c-.26-8.15-.1-16.95.38-26.2s1.31-19,2.36-29,2.31-20.27,3.65-30.65l1-7.79.5-4c.14-1.23.33-2.45.43-3.69a124.34,124.34,0,0,0,.53-14.93,143,143,0,0,0-3.93-29.74,191.77,191.77,0,0,0-9.08-28.09,269.56,269.56,0,0,0-25.21-46.86c-4.38-6.53-8.6-12.42-12.55-17.49s-7.55-9.39-10.68-12.81-5.67-6-7.52-7.72S513.47,108,513.47,108Z" transform="translate(-149.47 -74.8)"/><path class="cls-6" d="M521.75,96.81s1.76.45,5,1.46,8,2.52,14,4.76,13.16,5,21.24,8.69c4,1.82,8.33,3.82,12.81,6s9.1,4.69,13.89,7.36,9.74,5.56,14.78,8.7,10.12,6.62,15.25,10.33A224,224,0,0,1,649,170.42c9.61,10.22,18.7,22,25.42,35.58,1.72,3.37,3.21,6.9,4.62,10.47a112.77,112.77,0,0,1,3.49,11.06A106.08,106.08,0,0,1,684.82,239c.23,2,.49,3.81.65,5.91.12,1.8.26,3.54.3,5.6a139.38,139.38,0,0,1-6.13,45A219.52,219.52,0,0,1,663,335.18c-6.46,12.22-13.45,23.47-20.18,34s-13.29,20.17-19,29.27a261.51,261.51,0,0,0-14.3,25.33c-3.65,7.8-6.16,14.89-7.28,21a50.92,50.92,0,0,0-.86,14.34c.19,1.66.34,3,.52,3.81l.23,1.31-.46-1.25a36.79,36.79,0,0,1-1.18-3.72,48.11,48.11,0,0,1-1.34-14.87A84,84,0,0,1,604,421.51,207,207,0,0,1,616,394c5-9.75,10.65-20.08,16.64-30.89s12.13-22.21,17.83-34.17c2.82-6,5.5-12.13,8-18.4s4.59-12.72,6.4-19.25a142,142,0,0,0,4-19.92,115.74,115.74,0,0,0,1-20.14c0-1.55-.18-3.41-.32-5.2-.11-1.5-.33-3.24-.51-4.85a89.68,89.68,0,0,0-1.89-9.71,101.41,101.41,0,0,0-6.75-18.64c-5.66-12-13.47-22.93-22-32.75a241.54,241.54,0,0,0-27.21-26.31c-4.65-3.91-9.32-7.56-13.92-11s-9.1-6.71-13.52-9.74-8.73-5.81-12.86-8.44-8.07-5.1-11.82-7.34c-7.52-4.45-14.17-8.25-19.71-11.26s-9.94-5.33-13-6.85Z" transform="translate(-149.47 -74.8)"/><path class="cls-6" d="M435.82,506a14.6,14.6,0,0,1-1.69,1,32,32,0,0,1-4.75,2,46.15,46.15,0,0,1-15.35,2.1c-1.42,0-2.83-.17-4.22-.33a38.76,38.76,0,0,1-4-.68,35.85,35.85,0,0,1-3.7-1,26.77,26.77,0,0,1-3.22-1.18,28.93,28.93,0,0,1-4.58-2.34c-1.06-.64-1.64-1.07-1.64-1.07s.73,0,2,.06c.61,0,1.35.08,2.18.17s1.79.08,2.8.17,2.1.2,3.26.24,2.35.22,3.6.25,2.52.19,3.83.21,2.62.16,3.95.16c2.64.12,5.29.13,7.79.17l6.89,0Z" transform="translate(-149.47 -74.8)"/><path class="cls-6" d="M417.67,488.82a26.63,26.63,0,0,1-1.84,2c-.63.61-1.41,1.38-2.38,2.22l-1.56,1.37L410,495.83A78.58,78.58,0,0,1,400,502.39a81.51,81.51,0,0,1-14.61,6c-1.4.42-2.83.87-4.31,1.23l-4.58.93-2.36.47c-.8.11-1.61.17-2.43.27l-5,.5c-1.7.18-3.42.07-5.16.09s-3.53.06-5.31-.12-3.58-.35-5.4-.57L348,510.9c-.91-.16-1.81-.37-2.72-.56a74.87,74.87,0,0,1-11-2.84l-5.47-1.84-.69-.23-.8-.37-.3-.15-1.22-.59-2.44-1.19a61.06,61.06,0,0,1-6-4l-2.51-2.29-1.23-1.17c-.39-.41-.73-.86-1.09-1.29a38.08,38.08,0,0,1-4-5.42c-.58-.95-1.18-1.89-1.72-2.85l-1.39-2.95a68.18,68.18,0,0,1-5.39-24c-.11-2-.11-3.9-.17-5.83s.13-3.82.19-5.71c.23-3.75.54-7.44,1.08-11A185.26,185.26,0,0,1,310.84,399a208.79,208.79,0,0,1,10.88-24.86c1.49-2.91,2.81-5.13,3.67-6.65s1.4-2.3,1.4-2.3l-2,10-2.27,11.42c-.84,4.4-1.8,9.35-2.69,14.75A322,322,0,0,0,315.35,438c-.16,3.31-.26,6.64-.24,10s.22,6.7.5,10c.67,6.61,2,13.11,4.5,18.63l.92,2.07c.36.65.76,1.25,1.13,1.89a22.66,22.66,0,0,0,2.49,3.5c.22.27.42.58.66.83l.76.72,1.47,1.48c.49.47,1,.72,1.43,1.11l.69.56.34.29a1.5,1.5,0,0,0,.46.31l2.4,1.28,1.19.64.3.16.15.08.07,0c-1-.45-.22-.11-.42-.2l.58.23,4.6,1.87a82.91,82.91,0,0,0,9.2,3.14c.77.23,1.52.49,2.29.7l2.31.47c1.54.31,3.05.64,4.56,1s3,.4,4.52.61,3,.43,4.45.49L371,500c.72,0,1.44.07,2.15.07l2.11-.09,4.14-.15c1.35-.1,2.67-.32,4-.43a98.7,98.7,0,0,0,14.23-2.71,112.21,112.21,0,0,0,10.81-3.64c3-1.16,5.29-2.23,6.84-3S417.67,488.82,417.67,488.82Z" transform="translate(-149.47 -74.8)"/><path class="cls-6" d="M321.87,107.86s-1.07.83-2.9,2.51-4.39,4.31-7.52,7.72-6.69,7.78-10.68,12.81-8.17,11-12.55,17.49A269.25,269.25,0,0,0,263,195.26a191.69,191.69,0,0,0-9.08,28.09A142.91,142.91,0,0,0,250,253.09a124.46,124.46,0,0,0,.53,14.93c.1,1.24.29,2.46.43,3.69l.5,4,1,7.79c1.34,10.37,2.59,20.65,3.65,30.64s1.86,19.71,2.37,29,.64,18.06.38,26.2c-.15,4.07-.36,8-.71,11.7s-.83,7.23-1.39,10.53a72,72,0,0,1-4.64,16.71,31.1,31.1,0,0,1-5.93,9.45,17.73,17.73,0,0,1-2.16,2l-.79.59.62-.76a22.82,22.82,0,0,0,1.59-2.34,33.11,33.11,0,0,0,3.61-9.87,85,85,0,0,0,1.54-16.29c.05-6.35-.37-13.54-1.1-21.38s-1.8-16.32-3.11-25.3-2.81-18.44-4.42-28.25-3.33-20-4.91-30.38l-1.19-7.86-.54-3.9c-.17-1.4-.4-2.8-.52-4.21a126.57,126.57,0,0,1-.71-17,143.9,143.9,0,0,1,1.48-16.83,154.2,154.2,0,0,1,3.44-16.3,159.88,159.88,0,0,1,5-15.5c1.87-5,4-9.86,6.21-14.52a203.74,203.74,0,0,1,14.77-25.72,221.93,221.93,0,0,1,16-21,209.16,209.16,0,0,1,15.37-16,153.77,153.77,0,0,1,13-11.06,88.06,88.06,0,0,1,9.1-6.14A34.51,34.51,0,0,1,321.87,107.86Z" transform="translate(-149.47 -74.8)"/><path class="cls-6" d="M313.59,96.62l-4.65,2.33c-3,1.52-7.41,3.87-13,6.84s-12.18,6.81-19.71,11.26c-3.75,2.24-7.71,4.69-11.82,7.34s-8.44,5.41-12.86,8.44-8.94,6.26-13.52,9.73-9.27,7.09-13.92,11a241.45,241.45,0,0,0-27.21,26.31c-8.52,9.81-16.32,20.74-22,32.75a101.44,101.44,0,0,0-6.75,18.64,90,90,0,0,0-1.9,9.71c-.18,1.61-.4,3.35-.51,4.85-.13,1.79-.29,3.66-.32,5.2a115.69,115.69,0,0,0,1,20.14,142.09,142.09,0,0,0,4,19.92c1.82,6.53,4,13,6.4,19.25s5.15,12.41,8,18.4c5.7,12,11.86,23.35,17.83,34.17S214.36,384,219.33,393.8a207,207,0,0,1,12,27.52,84,84,0,0,1,4.82,22.82A48.13,48.13,0,0,1,234.83,459a37,37,0,0,1-1.18,3.72L233.2,464l.23-1.31c.18-.85.33-2.15.52-3.81a50.9,50.9,0,0,0-.86-14.34c-1.12-6.07-3.63-13.17-7.28-21a261.87,261.87,0,0,0-14.31-25.33c-5.68-9.1-12.26-18.77-19-29.27s-13.72-21.73-20.18-34a219.37,219.37,0,0,1-16.67-39.68,139.32,139.32,0,0,1-6.13-45c0-2.06.19-3.8.3-5.6.16-2.1.42-3.93.65-5.91a106.12,106.12,0,0,1,2.31-11.46,111.88,111.88,0,0,1,3.48-11.06c1.42-3.57,2.9-7.1,4.63-10.47,6.72-13.62,15.8-25.36,25.42-35.58a224.2,224.2,0,0,1,30.3-26.29c5.14-3.71,10.24-7.15,15.26-10.33s10-6,14.78-8.7,9.43-5.13,13.89-7.36,8.77-4.19,12.81-6c8.08-3.67,15.28-6.48,21.24-8.69s10.72-3.73,14-4.76S313.59,96.62,313.59,96.62Z" transform="translate(-149.47 -74.8)"/><path class="cls-6" d="M331.63,91.7s2.52-1.13,7-2.91c2.23-.88,4.94-2,8.07-3.13s6.83-2.12,10.85-3.24l6.28-1.75,6.78-1.39c4.67-.92,9.59-2,14.76-2.48s10.49-1.35,15.94-1.53l8.23-.43c2.76-.08,5.53,0,8.3,0s5.54,0,8.3.15l8.21.51,4.06.26,4,.45,7.84.92c5.13.77,10.08,1.56,14.73,2.51l6.76,1.47c2.18.48,4.26,1.09,6.26,1.59,4,1,7.64,2.15,10.84,3.16s6,2,8.21,2.9c4.51,1.72,7,3,7,3l-7.46-1.12L488,89.42,477,88.08c-4-.51-8.43-.86-13.05-1.33-2.31-.26-4.69-.41-7.12-.6s-4.9-.45-7.43-.59c-5.06-.21-10.25-.72-15.55-.81l-8-.29c-2.68-.11-5.37,0-8.06-.07s-5.38-.11-8.06-.06l-8,.21-4,.09c-1.32,0-2.62.05-3.91.15l-7.67.45c-5.06.17-9.9.73-14.52,1.15l-6.75.57-6.23.82c-4,.59-7.72.91-11,1.4s-6.17,1.06-8.54,1.45C334.37,91.38,331.63,91.7,331.63,91.7Z" transform="translate(-149.47 -74.8)"/><path class="cls-6" d="M480.34,439.32s11.41.37,28.35,2.65c4.24.56,8.82,1.22,13.65,2s9.93,1.68,15.16,2.77,10.65,2.2,16.11,3.54,11,2.79,16.49,4.33S581,458,586.37,459.79c2.67.9,5.31,1.82,7.88,2.83s5.13,2,7.6,3c5,2,9.7,4.18,14.12,6.37s8.52,4.41,12.19,6.65c1.86,1.07,3.6,2.18,5.22,3.28s3.18,2.11,4.57,3.18,2.74,2,3.91,2.94l3.17,2.68a27.78,27.78,0,0,1,2.47,2.24l1.76,1.73,1.46,1.43-1.65-1.21c-1.1-.76-2.59-2-4.69-3.35L641,489.29l-4.13-2.49c-1.46-.91-3.07-1.77-4.78-2.68s-3.46-1.9-5.37-2.81-3.85-1.94-5.95-2.84-4.19-2-6.44-2.87-4.51-1.93-6.89-2.82-4.77-1.91-7.26-2.79c-4.93-1.89-10.14-3.56-15.4-5.32s-10.68-3.35-16.11-4.91-10.87-3.08-16.26-4.46-10.69-2.77-15.86-4l-14.91-3.45L508.18,445C491.53,441.46,480.34,439.32,480.34,439.32Z" transform="translate(-149.47 -74.8)"/><path class="cls-6" d="M480.8,454.52l1.67,0c1.09,0,2.7.05,4.73.2s4.5.34,7.34.6,6,.64,9.47,1.25l5.4.86c1.86.33,3.76.75,5.74,1.14,3.95.74,8.06,1.78,12.31,2.85,2.13.51,4.25,1.2,6.43,1.81s4.38,1.22,6.55,2l6.57,2.29,3.31,1.15,3.27,1.3c4.33,1.79,8.69,3.53,12.82,5.59q3.14,1.47,6.18,3c2,1.05,3.93,2.19,5.86,3.25s3.81,2.12,5.63,3.19,3.5,2.31,5.18,3.41A99.94,99.94,0,0,1,598.5,495c2.76,2.17,5.26,4.2,7.46,6s3.85,3.7,5.32,5.12c2.91,2.86,4.53,4.52,4.53,4.52s-1.93-1.33-5.22-3.71l-5.88-4.31c-2.39-1.51-5.07-3.2-8-5.1s-6.16-3.7-9.57-5.69c-1.72-1-3.46-2-5.28-3s-3.74-1.89-5.66-2.86-3.85-2-5.85-2.95-4.08-1.8-6.13-2.75c-4.07-2-8.36-3.61-12.62-5.31l-3.18-1.32-3.23-1.17-6.42-2.33c-4.29-1.42-8.51-2.89-12.63-4.16s-8.12-2.52-12-3.5-7.44-2-10.81-2.86-6.46-1.54-9.2-2.23-5.15-1.18-7.15-1.56l-4.62-1Z" transform="translate(-149.47 -74.8)"/><path class="cls-6" d="M480.34,469.49l1.32,0c.86,0,2.13.08,3.74.23s3.56.34,5.79.65,4.74.67,7.45,1.25,5.65,1.16,8.73,1.94,6.31,1.7,9.62,2.73l5,1.7,2.55.87,2.53,1,5.1,2.07c1.71.69,3.37,1.52,5.07,2.27s3.35,1.58,5,2.41l4.85,2.62c3.26,1.64,6.25,3.67,9.19,5.51a94,94,0,0,1,8.21,5.74l3.71,2.77,3.27,2.85c2.09,1.83,4,3.49,5.62,5.06s2.91,3.06,4,4.23c2.19,2.37,3.4,3.75,3.4,3.75s-1.52-1.06-4.11-3c-1.29-1-2.86-2.1-4.61-3.46s-3.94-2.63-6.17-4.19l-3.5-2.39-3.87-2.38c-2.65-1.64-5.41-3.39-8.39-5l-4.5-2.53c-.75-.44-1.53-.85-2.32-1.23l-2.36-1.22-4.77-2.47c-1.62-.79-3.28-1.51-4.91-2.27s-3.24-1.6-4.9-2.3l-4.94-2.1c-3.26-1.44-6.55-2.64-9.7-3.93-3.2-1.12-6.26-2.35-9.21-3.35s-5.74-2-8.35-2.79c-5.2-1.68-9.59-2.94-12.67-3.81l-3.59-1Z" transform="translate(-149.47 -74.8)"/><path class="cls-6" d="M349.54,434.88s-11.19,2.14-27.84,5.65l-13.41,2.92-14.91,3.45c-5.17,1.19-10.47,2.6-15.86,4s-10.84,2.88-16.26,4.46-10.84,3.16-16.11,4.91-10.47,3.43-15.4,5.32c-2.49.88-4.89,1.88-7.26,2.79s-4.66,1.88-6.89,2.82-4.36,1.94-6.44,2.87-4,1.91-5.94,2.84-3.68,1.89-5.37,2.81-3.32,1.76-4.77,2.68l-4.13,2.49-3.42,2.26c-2.1,1.33-3.59,2.59-4.69,3.35l-1.65,1.21,1.46-1.43,1.76-1.73a27.74,27.74,0,0,1,2.47-2.24L188,483.6c1.17-1,2.51-1.89,3.91-2.94s2.93-2.1,4.57-3.18,3.36-2.21,5.22-3.28c3.68-2.24,7.77-4.48,12.19-6.65s9.13-4.38,14.11-6.37q3.72-1.55,7.6-3c2.57-1,5.21-1.93,7.88-2.83,5.33-1.83,10.79-3.52,16.27-5.15s11-3,16.49-4.33,10.87-2.48,16.11-3.54,10.33-2,15.16-2.77,9.42-1.47,13.65-2C338.13,435.25,349.54,434.88,349.54,434.88Z" transform="translate(-149.47 -74.8)"/><path class="cls-6" d="M349.08,450.09l-1.64.31-4.62,1c-2,.38-4.39,1-7.15,1.56s-5.85,1.35-9.2,2.23-7,1.8-10.81,2.86-7.8,2.32-12,3.49-8.33,2.75-12.63,4.16L284.66,468l-3.23,1.17-3.18,1.32c-4.26,1.71-8.56,3.34-12.63,5.31q-3.08,1.43-6.13,2.75c-2,.95-3.93,2-5.85,2.95s-3.79,2-5.66,2.86-3.56,2-5.28,3c-3.41,2-6.74,3.72-9.57,5.69s-5.57,3.59-8,5.1l-5.88,4.32c-3.29,2.38-5.22,3.71-5.22,3.71s1.62-1.66,4.53-4.52c1.46-1.42,3.23-3.17,5.32-5.12s4.69-3.83,7.46-6a99.89,99.89,0,0,1,9.24-6.57c1.68-1.11,3.39-2.29,5.18-3.42s3.72-2.1,5.63-3.19,3.85-2.2,5.86-3.25,4.09-2,6.18-3c4.14-2.06,8.49-3.8,12.82-5.59l3.26-1.3,3.31-1.15,6.57-2.29c2.17-.77,4.39-1.34,6.55-2s4.3-1.29,6.43-1.81c4.25-1.07,8.36-2.11,12.31-2.85,2-.39,3.88-.81,5.73-1.14l5.4-.86c3.45-.6,6.65-.88,9.47-1.24s5.3-.5,7.34-.6,3.64-.17,4.73-.2Z" transform="translate(-149.47 -74.8)"/><path class="cls-6" d="M349.54,465.05l-1.28.33-3.59,1c-3.09.87-7.47,2.13-12.67,3.81-2.61.8-5.39,1.8-8.35,2.78s-6,2.22-9.21,3.35c-3.15,1.28-6.44,2.49-9.7,3.93l-4.95,2.1c-1.66.7-3.26,1.54-4.9,2.3s-3.3,1.48-4.91,2.27l-4.77,2.47-2.36,1.22c-.8.38-1.57.78-2.33,1.23L276,494.35c-3,1.62-5.75,3.37-8.39,5l-3.87,2.38-3.5,2.39c-2.23,1.56-4.35,2.9-6.16,4.19s-3.32,2.5-4.61,3.46c-2.59,1.9-4.11,3-4.11,3s1.21-1.38,3.4-3.75c1.1-1.18,2.43-2.62,4-4.23s3.53-3.23,5.62-5.06l3.27-2.85,3.71-2.77a93.49,93.49,0,0,1,8.21-5.74c2.94-1.84,5.93-3.87,9.19-5.51l4.85-2.62c1.65-.84,3.33-1.61,5-2.42s3.35-1.58,5.07-2.27l5.1-2.07,2.53-1,2.55-.87,5-1.7c3.31-1,6.53-2,9.62-2.73s6-1.45,8.73-1.94,5.23-.91,7.45-1.25,4.18-.51,5.79-.65,2.88-.2,3.74-.23Z" transform="translate(-149.47 -74.8)"/><path class="cls-9" d="M393.64,415.25l-.34.35c-.23.22-.55.56-1,.94l-.71.65c-.24.25-.5.5-.77.77l-.87.83-.92,1c-.67.63-1.27,1.39-1.93,2.12-.28.4-.6.78-.9,1.18s-.53.83-.79,1.24a11.72,11.72,0,0,0-1.07,2.61,8.06,8.06,0,0,0-.29,2.72,11,11,0,0,0,.48,2.89,21.16,21.16,0,0,0,1.1,2.94c.43,1,.94,1.9,1.42,2.8s1,1.75,1.5,2.54c1,1.59,1.85,2.94,2.47,3.91s1,1.55,1,1.55-.17,0-.47-.14a13.44,13.44,0,0,1-1.28-.5,21.34,21.34,0,0,1-4.24-2.45,24.18,24.18,0,0,1-2.53-2.14,21.32,21.32,0,0,1-2.45-2.89,16.65,16.65,0,0,1-2-3.74,13.67,13.67,0,0,1-1-4.55,14.66,14.66,0,0,1,.13-2.43,12.37,12.37,0,0,1,.64-2.34,12.94,12.94,0,0,1,2.31-3.91q.72-.78,1.45-1.47c.52-.41,1-.81,1.52-1.17a18.85,18.85,0,0,1,3-1.63c.48-.2.92-.41,1.37-.56s.88-.28,1.28-.39.77-.22,1.12-.3l1-.16c.57-.11,1-.14,1.35-.18Z" transform="translate(-149.47 -74.8)"/></g></svg>